# xmcd
#
# Track frame offsets:
#	150
#	14946
#	25010
#	43387
#	57408
#	77508
#	90053
#	105323
#	117693
#	134054
#	147135
#
# Disc length: 2196 seconds
#
# Revision: 3
# Processed by: cddbd v1.5.2PL0 Copyright (c) Steve Scherf et al.
# Submitted via: audiograbber 1.83.01
#
DISCID=9408920b
DTITLE=Willie Nelson - Summertime - Willie Nelson Sings Gershwin
DYEAR=2016
DGENRE=Vocal Jazz
TTITLE0=But Not For Me
TTITLE1=Somebody Loves Me
TTITLE2=Someone To Watch Over Me
TTITLE3=Let's Call The Whole Thing Off (Feat. Cyndi Lauper)
TTITLE4=It Ain't Necessarily So
TTITLE5=I Got Rhythm
TTITLE6=Love Is Here To Stay
TTITLE7=They All Laughed
TTITLE8=Embraceable You (Feat. Sheryl Crow)
TTITLE9=They Can't Take That Away From Me
TTITLE10=Summertime
EXTD=
EXTT0=
EXTT1=
EXTT2=
EXTT3=
EXTT4=
EXTT5=
EXTT6=
EXTT7=
EXTT8=
EXTT9=
EXTT10=
PLAYORDER=
